<svg width="804" height="278" viewBox="0 0 804 278" fill="none" xmlns="http://www.w3.org/2000/svg">
<path d="M58.1467 239.279V267.453C57.04 268.788 55.331 270.236 53.0198 271.799C50.7086 273.329 47.7301 274.647 44.0842 275.754C40.4384 276.861 36.0276 277.414 30.8518 277.414C26.262 277.414 22.079 276.665 18.303 275.168C14.5269 273.638 11.2717 271.408 8.53735 268.479C5.83553 265.549 3.7522 261.968 2.28735 257.736C0.82251 253.472 0.0900879 248.605 0.0900879 243.137V238.693C0.0900879 233.225 0.789958 228.358 2.1897 224.094C3.62199 219.829 5.65649 216.232 8.29321 213.303C10.9299 210.373 14.0712 208.143 17.717 206.613C21.3629 205.083 25.4156 204.318 29.8752 204.318C36.0601 204.318 41.1383 205.327 45.1096 207.346C49.081 209.331 52.1083 212.098 54.1917 215.646C56.3075 219.162 57.6096 223.199 58.0979 227.756H43.8889C43.5308 225.347 42.8472 223.247 41.8381 221.457C40.829 219.667 39.3805 218.267 37.4924 217.258C35.637 216.249 33.2281 215.744 30.2659 215.744C27.8245 215.744 25.6435 216.249 23.7229 217.258C21.8349 218.234 20.2398 219.683 18.9377 221.604C17.6357 223.524 16.6428 225.9 15.9592 228.732C15.2756 231.564 14.9338 234.852 14.9338 238.596V243.137C14.9338 246.848 15.2919 250.135 16.0081 253C16.7242 255.832 17.7821 258.225 19.1819 260.178C20.6142 262.098 22.372 263.547 24.4553 264.523C26.5387 265.5 28.9638 265.988 31.7307 265.988C34.0419 265.988 35.9625 265.793 37.4924 265.402C39.0549 265.012 40.3082 264.54 41.2522 263.986C42.2288 263.4 42.9775 262.847 43.4983 262.326V249.729H30.1194V239.279H58.1467Z" fill="white"/>
<path d="M189.963 205.344H216.477C221.913 205.344 226.584 206.158 230.49 207.785C234.429 209.413 237.457 211.822 239.573 215.012C241.688 218.202 242.746 222.124 242.746 226.779C242.746 230.588 242.095 233.859 240.793 236.594C239.524 239.296 237.717 241.558 235.373 243.381C233.062 245.171 230.344 246.604 227.219 247.678L222.58 250.119H199.533L199.436 238.693H216.574C219.146 238.693 221.278 238.238 222.971 237.326C224.664 236.415 225.933 235.145 226.78 233.518C227.658 231.89 228.098 230.002 228.098 227.854C228.098 225.575 227.675 223.605 226.828 221.945C225.982 220.285 224.696 219.016 222.971 218.137C221.246 217.258 219.081 216.818 216.477 216.818H204.612V276.438H189.963V205.344ZM229.709 276.438L213.498 244.748L228.977 244.65L245.383 275.754V276.438H229.709Z" fill="white"/>
<path d="M432.424 239.23V242.6C432.424 248.003 431.692 252.854 430.227 257.15C428.762 261.447 426.695 265.109 424.026 268.137C421.356 271.132 418.166 273.426 414.455 275.021C410.777 276.617 406.692 277.414 402.199 277.414C397.74 277.414 393.655 276.617 389.944 275.021C386.265 273.426 383.075 271.132 380.373 268.137C377.671 265.109 375.572 261.447 374.074 257.15C372.61 252.854 371.877 248.003 371.877 242.6V239.23C371.877 233.794 372.61 228.944 374.074 224.68C375.539 220.383 377.606 216.721 380.276 213.693C382.977 210.666 386.168 208.355 389.846 206.76C393.557 205.165 397.642 204.367 402.102 204.367C406.594 204.367 410.679 205.165 414.358 206.76C418.069 208.355 421.259 210.666 423.928 213.693C426.63 216.721 428.713 220.383 430.178 224.68C431.675 228.944 432.424 233.794 432.424 239.23ZM417.629 242.6V239.133C417.629 235.357 417.287 232.036 416.604 229.172C415.92 226.307 414.911 223.898 413.576 221.945C412.242 219.992 410.614 218.527 408.694 217.551C406.773 216.542 404.576 216.037 402.102 216.037C399.628 216.037 397.431 216.542 395.51 217.551C393.622 218.527 392.011 219.992 390.676 221.945C389.374 223.898 388.381 226.307 387.698 229.172C387.014 232.036 386.672 235.357 386.672 239.133V242.6C386.672 246.343 387.014 249.663 387.698 252.561C388.381 255.425 389.39 257.85 390.725 259.836C392.059 261.789 393.687 263.27 395.608 264.279C397.528 265.288 399.726 265.793 402.199 265.793C404.673 265.793 406.871 265.288 408.791 264.279C410.712 263.27 412.323 261.789 413.625 259.836C414.927 257.85 415.92 255.425 416.604 252.561C417.287 249.663 417.629 246.343 417.629 242.6Z" fill="white"/>
<path d="M602.229 205.344H616.828V252.316C616.828 257.785 615.656 262.391 613.313 266.135C611.002 269.878 607.795 272.694 603.694 274.582C599.625 276.47 594.937 277.414 589.631 277.414C584.325 277.414 579.605 276.47 575.471 274.582C571.369 272.694 568.147 269.878 565.803 266.135C563.492 262.391 562.336 257.785 562.336 252.316V205.344H576.985V252.316C576.985 255.507 577.489 258.111 578.498 260.129C579.507 262.147 580.956 263.628 582.844 264.572C584.765 265.516 587.027 265.988 589.631 265.988C592.3 265.988 594.563 265.516 596.418 264.572C598.306 263.628 599.739 262.147 600.715 260.129C601.724 258.111 602.229 255.507 602.229 252.316V205.344Z" fill="white"/>
<path d="M776.574 251.096H758.459V239.67H776.574C779.374 239.67 781.653 239.214 783.41 238.303C785.168 237.359 786.454 236.057 787.268 234.396C788.082 232.736 788.489 230.865 788.489 228.781C788.489 226.665 788.082 224.696 787.268 222.873C786.454 221.05 785.168 219.585 783.41 218.479C781.653 217.372 779.374 216.818 776.574 216.818H763.537V276.438H748.889V205.344H776.574C782.141 205.344 786.91 206.353 790.881 208.371C794.885 210.357 797.945 213.107 800.061 216.623C802.177 220.139 803.235 224.159 803.235 228.684C803.235 233.273 802.177 237.245 800.061 240.598C797.945 243.951 794.885 246.538 790.881 248.361C786.91 250.184 782.141 251.096 776.574 251.096Z" fill="white"/>
<path d="M1.17334 6.35132V161.75H20.4359V29.307L47.0844 48.9689V161.75H65.5484V6.35132H47.0844V28.1091L19.1384 6.35132H1.17334Z" fill="white"/>
<path d="M109.763 45.1762L116.25 60.6461H122.738V161.75H169.547V144.184H140.703V61.5443H174.936L167.052 43.5793H140.304V23.1187H168.649V6.35132H122.738V45.1762H109.763Z" fill="white"/>
<path d="M221.346 24.7157H244.701V161.75H263.065V24.7157H284.424V6.35132H221.346V24.7157Z" fill="white"/>
<path d="M675.816 6.35132H656.603V161.74H675.816V6.35132Z" fill="white"/>
<path d="M764.794 6.35132C737.646 6.35132 735.55 26.8216 735.55 26.8216V43.9484H723.853L729.701 61.9138H735.55V161.75H754.344V61.9138H776.9V161.75H794.027V26.8316C794.027 26.8217 791.941 6.35132 764.794 6.35132ZM777.319 43.1102H754.344V30.1653C754.344 30.1653 753.086 22.6497 763.955 22.6497C774.814 22.6497 777.319 29.3369 777.319 29.3369V43.1102Z" fill="white"/>
<path d="M400.1 0.5625C353.49 0.5625 315.703 37.5008 315.703 83.0625C315.703 128.624 353.49 165.562 400.1 165.562C446.709 165.562 484.496 128.624 484.496 83.0625C484.496 37.5008 446.709 0.5625 400.1 0.5625ZM400.1 146.769C364.109 146.769 334.936 118.244 334.936 83.0625C334.936 47.8807 364.109 19.356 400.1 19.356C436.09 19.356 465.263 47.8807 465.263 83.0625C465.263 118.244 436.09 146.769 400.1 146.769Z" fill="white"/>
<path d="M549.61 6.35132H531.645V161.74H551.277V133.755C551.277 133.755 611.849 129.992 611.849 71.9343C611.849 13.8769 549.61 6.35132 549.61 6.35132ZM550.289 117.945V25.175C557.894 25.175 595.221 33.1496 595.221 71.5551C595.221 109.981 550.289 117.945 550.289 117.945Z" fill="white"/>
</svg>
